{
  "accessors": [
    {
      "bufferView": 2,
      "componentType": 5126,
      "count": 3000,
      "max": [
        570.1160278320313,
        109.27387237548828,
        598.8030395507813
      ],
      "min": [
        -399.82110595703125,
        -112.3410415649414,
        5.762475490570068
      ],
      "type": "VEC3"
    },
    {
      "bufferView": 2,
      "byteOffset": 36000,
      "componentType": 5126,
      "count": 3000,
      "max": [
        0.9969947338104248,
        0.999633252620697,
        0.9969418048858643
      ],
      "min": [
        -0.9992868900299072,
        -0.9994413256645203,
        -0.9943923950195313
      ],
      "type": "VEC3"
    },
    {
      "bufferView": 1,
      "componentType": 5126,
      "count": 3000,
      "max": [
        0.9433590173721313,
        0.8723139762878418
      ],
      "min": [
        0.020766999572515488,
        0.0229489803314209
      ],
      "type": "VEC2"
    },
    {
      "bufferView": 0,
      "componentType": 5125,
      "count": 3000,
      "type": "SCALAR"
    },
    {
      "bufferView": 2,
      "byteOffset": 72000,
      "componentType": 5126,
      "count": 1072,
      "max": [
        553.928466796875,
        49.62550354003906,
        466.8759460449219
      ],
      "min": [
        439.2291259765625,
        -57.25238800048828,
        388.8243103027344
      ],
      "type": "VEC3"
    },
    {
      "bufferView": 2,
      "byteOffset": 84864,
      "componentType": 5126,
      "count": 1072,
      "max": [
        0.9999762773513794,
        0.9924535155296326,
        0.993350625038147
      ],
      "min": [
        -0.9711764454841614,
        -0.999633252620697,
        -0.9947522878646851
      ],
      "type": "VEC3"
    },
    {
      "bufferView": 1,
      "byteOffset": 24000,
      "componentType": 5126,
      "count": 1072,
      "max": [
        0.9902340173721313,
        0.7238770127296448
      ],
      "min": [
        0.3186039924621582,
        0.2197270393371582
      ],
      "type": "VEC2"
    },
    {
      "bufferView": 0,
      "byteOffset": 12000,
      "componentType": 5125,
      "count": 1077,
      "type": "SCALAR"
    },
    {
      "bufferView": 2,
      "byteOffset": 97728,
      "componentType": 5126,
      "count": 198,
      "max": [
        493.0742492675781,
        31.092424392700195,
        497.198486328125
      ],
      "min": [
        482.510498046875,
        -36.80325698852539,
        480.9181823730469
      ],
      "type": "VEC3"
    },
    {
      "bufferView": 2,
      "byteOffset": 100104,
      "componentType": 5126,
      "count": 198,
      "max": [
        0.9714373350143433,
        0.9884384274482727,
        0.9777591228485107
      ],
      "min": [
        -0.9991337656974792,
        -0.9725995659828186,
        -0.9467506408691406
      ],
      "type": "VEC3"
    },
    {
      "bufferView": 1,
      "byteOffset": 32576,
      "componentType": 5126,
      "count": 198,
      "max": [
        0.5361329913139343,
        0.17138707637786865
      ],
      "min": [
        0.4782710075378418,
        0.10595703125
      ],
      "type": "VEC2"
    },
    {
      "bufferView": 0,
      "byteOffset": 16308,
      "componentType": 5125,
      "count": 198,
      "type": "SCALAR"
    },
    {
      "bufferView": 2,
      "byteOffset": 102480,
      "componentType": 5126,
      "count": 1073,
      "max": [
        476.5542907714844,
        130.9740753173828,
        570.300048828125
      ],
      "min": [
        -448.0249328613281,
        -135.7866668701172,
        40.755794525146484
      ],
      "type": "VEC3"
    },
    {
      "bufferView": 2,
      "byteOffset": 115356,
      "componentType": 5126,
      "count": 1073,
      "max": [
        0.9792786836624146,
        0.9938233494758606,
        0.998287558555603
      ],
      "min": [
        -0.9462149739265442,
        -0.9945019483566284,
        -0.9587187170982361
      ],
      "type": "VEC3"
    },
    {
      "bufferView": 1,
      "byteOffset": 34160,
      "componentType": 5126,
      "count": 1073,
      "max": [
        0.9970700144767761,
        0.9717559814453125
      ],
      "min": [
        0.042357999831438065,
        0.011229991912841797
      ],
      "type": "VEC2"
    },
    {
      "bufferView": 0,
      "byteOffset": 17100,
      "componentType": 5125,
      "count": 1077,
      "type": "SCALAR"
    }
  ],
  "asset": {
    "extras": {
      "author": "sinork123 (https://sketchfab.com/sinork123)",
      "license": "CC-BY-4.0 (http://creativecommons.org/licenses/by/4.0/)",
      "source": "https://sketchfab.com/3d-models/low-poly-wolf-d8c1d7dc47cb40128826157775031dcc",
      "title": "Low-poly wolf"
    },
    "generator": "Sketchfab-12.68.0",
    "version": "2.0"
  },
  "bufferViews": [
    {
      "buffer": 0,
      "byteLength": 21408,
      "name": "floatBufferViews",
      "target": 34963
    },
    {
      "buffer": 0,
      "byteLength": 42744,
      "byteOffset": 21408,
      "byteStride": 8,
      "name": "floatBufferViews",
      "target": 34962
    },
    {
      "buffer": 0,
      "byteLength": 128232,
      "byteOffset": 64152,
      "byteStride": 12,
      "name": "floatBufferViews",
      "target": 34962
    }
  ],
  "buffers": [
    {
      "byteLength": 192384,
      "uri": "scene.bin"
    }
  ],
  "materials": [
    {
      "doubleSided": true,
      "name": "material",
      "pbrMetallicRoughness": {
        "baseColorFactor": [
          0.8,
          0.8,
          0.8,
          1.0
        ],
        "metallicFactor": 0.0,
        "roughnessFactor": 0.6
      }
    }
  ],
  "meshes": [
    {
      "name": "Object_0",
      "primitives": [
        {
          "attributes": {
            "NORMAL": 1,
            "POSITION": 0,
            "TEXCOORD_0": 2
          },
          "indices": 3,
          "material": 0,
          "mode": 4
        }
      ]
    },
    {
      "name": "Object_1",
      "primitives": [
        {
          "attributes": {
            "NORMAL": 5,
            "POSITION": 4,
            "TEXCOORD_0": 6
          },
          "indices": 7,
          "material": 0,
          "mode": 4
        }
      ]
    },
    {
      "name": "Object_2",
      "primitives": [
        {
          "attributes": {
            "NORMAL": 9,
            "POSITION": 8,
            "TEXCOORD_0": 10
          },
          "indices": 11,
          "material": 0,
          "mode": 4
        }
      ]
    },
    {
      "name": "Object_3",
      "primitives": [
        {
          "attributes": {
            "NORMAL": 13,
            "POSITION": 12,
            "TEXCOORD_0": 14
          },
          "indices": 15,
          "material": 0,
          "mode": 4
        }
      ]
    }
  ],
  "nodes": [
    {
      "children": [
        1
      ],
      "matrix": [
        1.0,
        0.0,
        0.0,
        0.0,
        0.0,
        2.220446049250313e-16,
        -1.0,
        0.0,
        0.0,
        1.0,
        2.220446049250313e-16,
        0.0,
        0.0,
        0.0,
        0.0,
        1.0
      ],
      "name": "Sketchfab_model"
    },
    {
      "children": [
        2,
        4,
        7,
        10
      ],
      "matrix": [
        -0.006033420562744141,
        -0.9999817609786987,
        0.0,
        0.0,
        0.0,
        0.0,
        -1.0,
        0.0,
        0.9999817609786987,
        -0.006033450365066528,
        0.0,
        0.0,
        -17.680526733398438,
        0.1066753938794136,
        6.3981146812438965,
        1.0
      ],
      "name": "grp1"
    },
    {
      "children": [
        3
      ],
      "matrix": [
        -0.006033386774149503,
        -1.2810847864630728e-26,
        0.9999817773278379,
        0.0,
        -0.9999817773278379,
        6.123233744932286e-17,
        -0.006033386774149503,
        0.0,
        -6.123122681235294e-17,
        -1.0,
        -3.694384061695584e-19,
        0.0,
        -6.1845992739617424e-09,
        6.3981146812438965,
        17.68084816086668,
        1.0
      ],
      "name": "3DSMeshMatrix"
    },
    {
      "mesh": 0,
      "name": "Object_3"
    },
    {
      "children": [
        5
      ],
      "matrix": [
        1.0000000000000002,
        0.0,
        -8.673617379884035e-19,
        0.0,
        0.0,
        1.0000000000000002,
        0.0,
        0.0,
        0.0,
        0.0,
        1.0000000000000002,
        0.0,
        0.0,
        0.0,
        0.0,
        1.0
      ],
      "name": "grp2"
    },
    {
      "children": [
        6
      ],
      "matrix": [
        -0.006033386774149503,
        -1.2810847864630728e-26,
        0.9999817773278379,
        0.0,
        -0.9999817773278379,
        6.123233744932286e-17,
        -0.006033386774149503,
        0.0,
        -6.123122681235294e-17,
        -1.0,
        -3.694384061695584e-19,
        0.0,
        -6.1845992739617424e-09,
        6.3981146812438965,
        17.68084816086668,
        1.0
      ],
      "name": "3DSMeshMatrix"
    },
    {
      "mesh": 1,
      "name": "Object_6"
    },
    {
      "children": [
        8
      ],
      "matrix": [
        1.0000000000000002,
        0.0,
        -8.673617379884035e-19,
        0.0,
        0.0,
        1.0000000000000002,
        0.0,
        0.0,
        0.0,
        0.0,
        1.0000000000000002,
        0.0,
        0.0,
        0.0,
        0.0,
        1.0
      ],
      "name": "grp3"
    },
    {
      "children": [
        9
      ],
      "matrix": [
        -0.006033386774149503,
        -1.2810847864630728e-26,
        0.9999817773278379,
        0.0,
        -0.9999817773278379,
        6.123233744932286e-17,
        -0.006033386774149503,
        0.0,
        -6.123122681235294e-17,
        -1.0,
        -3.694384061695584e-19,
        0.0,
        -6.1845992739617424e-09,
        6.3981146812438965,
        17.68084816086668,
        1.0
      ],
      "name": "3DSMeshMatrix"
    },
    {
      "mesh": 2,
      "name": "Object_9"
    },
    {
      "children": [
        11
      ],
      "matrix": [
        1.0000000000000002,
        0.0,
        -8.673617379884035e-19,
        0.0,
        0.0,
        1.0000000000000002,
        0.0,
        0.0,
        0.0,
        0.0,
        1.0000000000000002,
        0.0,
        0.0,
        0.0,
        0.0,
        1.0
      ],
      "name": "grp1_2"
    },
    {
      "children": [
        12
      ],
      "matrix": [
        -0.006033386774149503,
        -1.2810847864630728e-26,
        0.9999817773278379,
        0.0,
        -0.9999817773278379,
        6.123233744932286e-17,
        -0.006033386774149503,
        0.0,
        -6.123122681235294e-17,
        -1.0,
        -3.694384061695584e-19,
        0.0,
        -6.1845992739617424e-09,
        6.3981146812438965,
        17.68084816086668,
        1.0
      ],
      "name": "3DSMeshMatrix"
    },
    {
      "mesh": 3,
      "name": "Object_12"
    }
  ],
  "scene": 0,
  "scenes": [
    {
      "name": "Sketchfab_Scene",
      "nodes": [
        0
      ]
    }
  ]
}
