<svg width="555" height="256" viewBox="0 0 555 256" fill="none" xmlns="http://www.w3.org/2000/svg">
<path d="M0 128L64 192L96 160L106.667 192L128 256V192V128V96V80V64V32L117.175 64L114.112 73.0558L117.333 74.6667L111.641 80.359L96 96L106.667 106.667L82.2857 118.857L75.6364 122.182L72 120L64 115.2L32 96L64 64L128 0L38.087 36.8975L0 128Z" fill="url(#paint0_linear_85_7)"/>
<path d="M156.625 113V33H182.445C188.122 33 192.862 34.0937 196.664 36.2812C200.492 38.4427 203.37 41.3854 205.297 45.1094C207.25 48.8333 208.227 53.026 208.227 57.6875C208.227 62.349 207.263 66.5547 205.336 70.3047C203.409 74.0286 200.544 76.9844 196.742 79.1719C192.94 81.3333 188.214 82.4141 182.563 82.4141H162.25V75.8516H182.367C186.56 75.8516 190.036 75.0703 192.797 73.5078C195.557 71.9193 197.615 69.7578 198.969 67.0234C200.349 64.2891 201.039 61.1771 201.039 57.6875C201.039 54.1979 200.349 51.0859 198.969 48.3516C197.615 45.6172 195.544 43.4688 192.758 41.9063C189.997 40.3437 186.495 39.5625 182.25 39.5625H163.93V113H156.625ZM230.883 75.5V113H223.93V33H230.883V62.4141H231.508C232.914 59.3151 235.089 56.8411 238.031 54.9922C241 53.1432 244.75 52.2188 249.281 52.2188C253.344 52.2188 256.911 53.0521 259.984 54.7187C263.057 56.3854 265.453 58.8464 267.172 62.1016C268.891 65.3568 269.75 69.3672 269.75 74.1328V113H262.758V74.5625C262.758 69.6146 261.378 65.7214 258.617 62.8828C255.883 60.0182 252.185 58.5859 247.523 58.5859C244.32 58.5859 241.469 59.263 238.969 60.6172C236.469 61.9714 234.49 63.9245 233.031 66.4766C231.599 69.0026 230.883 72.0104 230.883 75.5ZM311.381 114.25C306.199 114.25 301.615 112.935 297.631 110.305C293.673 107.674 290.574 104.042 288.334 99.4062C286.094 94.7448 284.975 89.3672 284.975 83.2734C284.975 77.1276 286.094 71.724 288.334 67.0625C290.574 62.375 293.673 58.7292 297.631 56.125C301.615 53.4948 306.199 52.1797 311.381 52.1797C316.563 52.1797 321.133 53.4948 325.092 56.125C329.05 58.7552 332.149 62.401 334.389 67.0625C336.654 71.724 337.787 77.1276 337.787 83.2734C337.787 89.3672 336.667 94.7448 334.428 99.4062C332.188 104.042 329.076 107.674 325.092 110.305C321.133 112.935 316.563 114.25 311.381 114.25ZM311.381 107.883C315.548 107.883 319.076 106.763 321.967 104.523C324.857 102.284 327.045 99.3021 328.529 95.5781C330.04 91.8542 330.795 87.7526 330.795 83.2734C330.795 78.7943 330.04 74.6797 328.529 70.9297C327.045 67.1797 324.857 64.1719 321.967 61.9062C319.076 59.6406 315.548 58.5078 311.381 58.5078C307.24 58.5078 303.712 59.6406 300.795 61.9062C297.904 64.1719 295.704 67.1797 294.193 70.9297C292.709 74.6797 291.967 78.7943 291.967 83.2734C291.967 87.7526 292.709 91.8542 294.193 95.5781C295.704 99.3021 297.904 102.284 300.795 104.523C303.686 106.763 307.214 107.883 311.381 107.883ZM377.309 114.25C371.71 114.25 366.866 112.948 362.777 110.344C358.689 107.714 355.525 104.081 353.285 99.4453C351.072 94.7839 349.965 89.4193 349.965 83.3516C349.965 77.3099 351.072 71.9453 353.285 67.2578C355.525 62.5443 358.611 58.8594 362.543 56.2031C366.501 53.5208 371.072 52.1797 376.254 52.1797C379.509 52.1797 382.647 52.7786 385.668 53.9766C388.689 55.1484 391.397 56.9583 393.793 59.4062C396.215 61.8281 398.129 64.888 399.535 68.5859C400.941 72.2578 401.645 76.6068 401.645 81.6328V85.0703H354.77V78.9375H394.535C394.535 75.0833 393.754 71.6198 392.191 68.5469C390.655 65.4479 388.507 63 385.746 61.2031C383.012 59.4062 379.848 58.5078 376.254 58.5078C372.452 58.5078 369.105 59.5234 366.215 61.5547C363.324 63.5859 361.059 66.2682 359.418 69.6016C357.803 72.9349 356.983 76.5807 356.957 80.5391V84.2109C356.957 88.9766 357.777 93.1432 359.418 96.7109C361.085 100.253 363.441 103 366.488 104.953C369.535 106.906 373.142 107.883 377.309 107.883C380.147 107.883 382.634 107.44 384.77 106.555C386.931 105.669 388.741 104.484 390.199 103C391.684 101.49 392.803 99.8359 393.559 98.0391L400.16 100.187C399.249 102.714 397.751 105.044 395.668 107.18C393.611 109.315 391.033 111.034 387.934 112.336C384.861 113.612 381.319 114.25 377.309 114.25ZM423.92 75.5V113H416.967V53H423.725V62.4141H424.35C425.756 59.3411 427.943 56.8802 430.912 55.0313C433.907 53.1563 437.605 52.2188 442.006 52.2188C446.042 52.2188 449.584 53.0651 452.631 54.7578C455.704 56.4245 458.087 58.8854 459.779 62.1406C461.498 65.3958 462.357 69.3932 462.357 74.1328V113H455.404V74.5625C455.404 69.6406 454.024 65.7474 451.264 62.8828C448.529 60.0182 444.857 58.5859 440.248 58.5859C437.097 58.5859 434.298 59.263 431.85 60.6172C429.402 61.9714 427.462 63.9245 426.029 66.4766C424.623 69.0026 423.92 72.0104 423.92 75.5ZM480.746 113V53H487.738V113H480.746ZM484.301 42.6875C482.868 42.6875 481.645 42.2057 480.629 41.2422C479.613 40.2526 479.105 39.0677 479.105 37.6875C479.105 36.3073 479.613 35.1354 480.629 34.1719C481.645 33.1823 482.868 32.6875 484.301 32.6875C485.733 32.6875 486.957 33.1823 487.973 34.1719C488.988 35.1354 489.496 36.3073 489.496 37.6875C489.496 39.0677 488.988 40.2526 487.973 41.2422C486.957 42.2057 485.733 42.6875 484.301 42.6875ZM510.424 53L525.893 78.5859L541.361 53H549.447L530.15 83L549.447 113H541.361L525.893 88.2344L510.424 113H502.377L521.439 83L502.377 53H510.424ZM156.625 223V143H203.031V149.562H163.93V179.68H200.57V186.242H163.93V216.437H203.813V223H156.625ZM227.445 185.5V223H220.492V163H227.25V172.414H227.875C229.281 169.341 231.469 166.88 234.438 165.031C237.432 163.156 241.13 162.219 245.531 162.219C249.568 162.219 253.109 163.065 256.156 164.758C259.229 166.424 261.612 168.885 263.305 172.141C265.023 175.396 265.883 179.393 265.883 184.133V223H258.93V184.562C258.93 179.641 257.549 175.747 254.789 172.883C252.055 170.018 248.383 168.586 243.773 168.586C240.622 168.586 237.823 169.263 235.375 170.617C232.927 171.971 230.987 173.924 229.555 176.477C228.148 179.003 227.445 182.01 227.445 185.5ZM307.084 246.75C302.995 246.75 299.415 246.216 296.342 245.148C293.269 244.107 290.678 242.674 288.568 240.852C286.459 239.029 284.818 236.984 283.646 234.719L289.35 230.969C290.209 232.479 291.355 233.964 292.787 235.422C294.245 236.88 296.133 238.091 298.451 239.055C300.795 240.018 303.673 240.5 307.084 240.5C312.396 240.5 316.68 239.172 319.936 236.516C323.217 233.859 324.857 229.732 324.857 224.133V210.617H324.232C323.425 212.44 322.266 214.263 320.756 216.086C319.245 217.883 317.266 219.38 314.818 220.578C312.396 221.776 309.389 222.375 305.795 222.375C301.003 222.375 296.745 221.19 293.021 218.82C289.324 216.451 286.407 213.065 284.271 208.664C282.162 204.237 281.107 198.964 281.107 192.844C281.107 186.776 282.136 181.437 284.193 176.828C286.277 172.219 289.18 168.625 292.904 166.047C296.628 163.469 300.964 162.18 305.912 162.18C309.584 162.18 312.631 162.831 315.053 164.133C317.475 165.409 319.415 166.997 320.873 168.898C322.357 170.799 323.516 172.648 324.35 174.445H325.053V163H331.85V224.563C331.85 229.641 330.769 233.82 328.607 237.102C326.446 240.383 323.503 242.805 319.779 244.367C316.055 245.956 311.824 246.75 307.084 246.75ZM306.615 216.008C310.469 216.008 313.764 215.083 316.498 213.234C319.232 211.359 321.329 208.677 322.787 205.187C324.245 201.698 324.975 197.544 324.975 192.727C324.975 188.039 324.258 183.885 322.826 180.266C321.394 176.62 319.311 173.755 316.576 171.672C313.868 169.562 310.548 168.508 306.615 168.508C302.605 168.508 299.219 169.589 296.459 171.75C293.699 173.911 291.615 176.828 290.209 180.5C288.803 184.146 288.1 188.221 288.1 192.727C288.1 197.31 288.816 201.359 290.248 204.875C291.68 208.365 293.777 211.099 296.537 213.078C299.298 215.031 302.657 216.008 306.615 216.008ZM350.336 223V163H357.328V223H350.336ZM353.891 152.687C352.458 152.687 351.234 152.206 350.219 151.242C349.203 150.253 348.695 149.068 348.695 147.687C348.695 146.307 349.203 145.135 350.219 144.172C351.234 143.182 352.458 142.687 353.891 142.687C355.323 142.687 356.547 143.182 357.562 144.172C358.578 145.135 359.086 146.307 359.086 147.687C359.086 149.068 358.578 150.253 357.562 151.242C356.547 152.206 355.323 152.687 353.891 152.687ZM382.67 185.5V223H375.717V163H382.475V172.414H383.1C384.506 169.341 386.693 166.88 389.662 165.031C392.657 163.156 396.355 162.219 400.756 162.219C404.792 162.219 408.334 163.065 411.381 164.758C414.454 166.424 416.837 168.885 418.529 172.141C420.248 175.396 421.107 179.393 421.107 184.133V223H414.154V184.562C414.154 179.641 412.774 175.747 410.014 172.883C407.279 170.018 403.607 168.586 398.998 168.586C395.847 168.586 393.048 169.263 390.6 170.617C388.152 171.971 386.212 173.924 384.779 176.477C383.373 179.003 382.67 182.01 382.67 185.5ZM463.676 224.25C458.077 224.25 453.233 222.948 449.145 220.344C445.056 217.714 441.892 214.081 439.652 209.445C437.439 204.784 436.332 199.419 436.332 193.352C436.332 187.31 437.439 181.945 439.652 177.258C441.892 172.544 444.978 168.859 448.91 166.203C452.868 163.521 457.439 162.18 462.621 162.18C465.876 162.18 469.014 162.779 472.035 163.977C475.056 165.148 477.764 166.958 480.16 169.406C482.582 171.828 484.496 174.888 485.902 178.586C487.309 182.258 488.012 186.607 488.012 191.633V195.07H441.137V188.937H480.902C480.902 185.083 480.121 181.62 478.559 178.547C477.022 175.448 474.874 173 472.113 171.203C469.379 169.406 466.215 168.508 462.621 168.508C458.819 168.508 455.473 169.523 452.582 171.555C449.691 173.586 447.426 176.268 445.785 179.602C444.171 182.935 443.35 186.581 443.324 190.539V194.211C443.324 198.977 444.145 203.143 445.785 206.711C447.452 210.253 449.809 213 452.855 214.953C455.902 216.906 459.509 217.883 463.676 217.883C466.514 217.883 469.001 217.44 471.137 216.555C473.298 215.669 475.108 214.484 476.566 213C478.051 211.49 479.171 209.836 479.926 208.039L486.527 210.187C485.616 212.714 484.118 215.044 482.035 217.18C479.978 219.315 477.4 221.034 474.301 222.336C471.228 223.612 467.686 224.25 463.676 224.25Z" fill="url(#paint1_linear_85_7)"/>
<defs>
<linearGradient id="paint0_linear_85_7" x1="128" y1="-2.61626e-08" x2="128.439" y2="219.069" gradientUnits="userSpaceOnUse">
<stop stop-color="#FF932F"/>
<stop offset="1" stop-color="#FF0000"/>
</linearGradient>
<linearGradient id="paint1_linear_85_7" x1="238.585" y1="44.0694" x2="242.557" y2="222.37" gradientUnits="userSpaceOnUse">
<stop stop-color="#FE8F2D"/>
<stop offset="1" stop-color="#FF1E1E"/>
</linearGradient>
</defs>
</svg>
