<svg width="319" height="305" viewBox="0 0 319 305" fill="none" xmlns="http://www.w3.org/2000/svg">
<path d="M159.5 0L239.25 76.25L271.54 43.96L159.5 0Z" fill="url(#paint0_linear_20_7)"/>
<path d="M271.54 43.96L239.25 76.25L279.125 114.375L319 152.5L271.54 43.96Z" fill="url(#paint1_linear_20_7)"/>
<path d="M239.25 152.5H319L279.125 114.375L239.25 137.25V152.5Z" fill="url(#paint2_linear_20_7)"/>
<path d="M239.25 228.75L319 152.5H239.25V228.75Z" fill="url(#paint3_linear_20_7)"/>
<path d="M239.25 228.75V152.5H212.667L199.375 190.625L239.25 228.75Z" fill="url(#paint4_linear_20_7)"/>
<path d="M79.75 76.25L159.5 0L47.46 43.96L79.75 76.25Z" fill="url(#paint5_linear_20_7)"/>
<path d="M79.75 76.25L47.46 43.96L0 152.5L39.875 114.375L79.75 76.25Z" fill="url(#paint6_linear_20_7)"/>
<path d="M146.011 76.25H159.5V38.125L146.011 76.25Z" fill="url(#paint7_linear_20_7)"/>
<path d="M159.5 76.25H172.989L159.5 38.125V76.25Z" fill="url(#paint8_linear_20_7)"/>
<path d="M159.5 76.25L172.792 88.9583L176.806 87.0391L172.989 76.25H159.5Z" fill="url(#paint9_linear_20_7)"/>
<path d="M146.208 88.9583L159.5 76.25H146.011L142.194 87.0391L146.208 88.9583Z" fill="url(#paint10_linear_20_7)"/>
<path d="M159.5 95.3125V76.25L146.208 88.9583L159.5 95.3125Z" fill="url(#paint11_linear_20_7)"/>
<path d="M139.115 95.7402L119.625 114.375L159.5 95.3125L146.208 88.9583L139.115 95.7402Z" fill="url(#paint12_linear_20_7)"/>
<path d="M172.792 88.9583L159.5 76.25V95.3125L172.792 88.9583Z" fill="url(#paint13_linear_20_7)"/>
<path d="M199.375 114.375L179.885 95.7402L172.792 88.9583L159.5 95.3125L199.375 114.375Z" fill="url(#paint14_linear_20_7)"/>
<path d="M159.5 114.375L186.083 127.083L199.375 114.375L159.5 95.3125V114.375Z" fill="url(#paint15_linear_20_7)"/>
<path d="M132.917 127.083L159.5 114.375V95.3125L119.625 114.375L132.917 127.083Z" fill="url(#paint16_linear_20_7)"/>
<path d="M159.5 152.5V114.375L132.917 127.083L159.5 152.5Z" fill="url(#paint17_linear_20_7)"/>
<path d="M159.5 114.375V152.5L172.792 139.792L186.083 127.083L159.5 114.375Z" fill="url(#paint18_linear_20_7)"/>
<path d="M212.667 152.5H239.25L224.75 145.568L212.667 152.5Z" fill="url(#paint19_linear_20_7)"/>
<path d="M159.5 152.5H212.667L216.464 141.607L186.083 127.083L172.792 139.792L159.5 152.5Z" fill="url(#paint20_linear_20_7)"/>
<path d="M216.464 141.607L212.667 152.5L224.75 145.568L216.464 141.607Z" fill="url(#paint21_linear_20_7)"/>
<path d="M229.281 142.969L239.25 152.5V137.25L229.281 142.969Z" fill="url(#paint22_linear_20_7)"/>
<path d="M224.75 145.568L239.25 152.5L229.281 142.969L224.75 145.568Z" fill="url(#paint23_linear_20_7)"/>
<path d="M212.667 152.5H159.5L199.375 190.625L212.667 152.5Z" fill="url(#paint24_linear_20_7)"/>
<path d="M119.625 190.625L159.5 152.5H106.333L119.625 190.625Z" fill="url(#paint25_linear_20_7)"/>
<path d="M106.333 152.5L102.536 141.607L94.25 145.568L106.333 152.5Z" fill="url(#paint26_linear_20_7)"/>
<path d="M89.7188 142.969L79.75 152.5L94.25 145.568L89.7188 142.969Z" fill="url(#paint27_linear_20_7)"/>
<path d="M79.75 152.5H106.333L94.25 145.568L79.75 152.5Z" fill="url(#paint28_linear_20_7)"/>
<path d="M79.75 137.25V152.5L89.7188 142.969L79.75 137.25Z" fill="url(#paint29_linear_20_7)"/>
<path d="M0 152.5H79.75V137.25L39.875 114.375L0 152.5Z" fill="url(#paint30_linear_20_7)"/>
<path d="M0 152.5L79.75 228.75V152.5H0Z" fill="url(#paint31_linear_20_7)"/>
<path d="M79.75 152.5V228.75L119.625 190.625L106.333 152.5H79.75Z" fill="url(#paint32_linear_20_7)"/>
<path d="M159.5 228.75V152.5L119.625 190.625L132.917 228.75H159.5Z" fill="url(#paint33_linear_20_7)"/>
<path d="M186.083 228.75L199.375 190.625L159.5 152.5V228.75H186.083Z" fill="url(#paint34_linear_20_7)"/>
<path d="M159.5 305L186.083 228.75H159.5V305Z" fill="url(#paint35_linear_20_7)"/>
<path d="M132.917 228.75L159.5 305V228.75H132.917Z" fill="url(#paint36_linear_20_7)"/>
<path d="M106.333 152.5H159.5L132.917 127.083L102.536 141.607L106.333 152.5Z" fill="url(#paint37_linear_20_7)"/>
<defs>
<linearGradient id="paint0_linear_20_7" x1="162.5" y1="218.5" x2="269.5" y2="45.5" gradientUnits="userSpaceOnUse">
<stop stop-color="#FF0000"/>
<stop offset="1" stop-color="#FF7A00"/>
</linearGradient>
<linearGradient id="paint1_linear_20_7" x1="162.5" y1="218.5" x2="269.5" y2="45.5" gradientUnits="userSpaceOnUse">
<stop stop-color="#FF0000"/>
<stop offset="1" stop-color="#FF7A00"/>
</linearGradient>
<linearGradient id="paint2_linear_20_7" x1="162.5" y1="218.5" x2="269.5" y2="45.5" gradientUnits="userSpaceOnUse">
<stop stop-color="#FF0000"/>
<stop offset="1" stop-color="#FF7A00"/>
</linearGradient>
<linearGradient id="paint3_linear_20_7" x1="162.5" y1="218.5" x2="269.5" y2="45.5" gradientUnits="userSpaceOnUse">
<stop stop-color="#FF0000"/>
<stop offset="1" stop-color="#FF7A00"/>
</linearGradient>
<linearGradient id="paint4_linear_20_7" x1="162.5" y1="218.5" x2="269.5" y2="45.5" gradientUnits="userSpaceOnUse">
<stop stop-color="#FF0000"/>
<stop offset="1" stop-color="#FF7A00"/>
</linearGradient>
<linearGradient id="paint5_linear_20_7" x1="159.5" y1="-3.11703e-08" x2="160" y2="261" gradientUnits="userSpaceOnUse">
<stop stop-color="#FF932F"/>
<stop offset="1" stop-color="#FF0000"/>
</linearGradient>
<linearGradient id="paint6_linear_20_7" x1="159.5" y1="-3.11703e-08" x2="160" y2="261" gradientUnits="userSpaceOnUse">
<stop stop-color="#FF932F"/>
<stop offset="1" stop-color="#FF0000"/>
</linearGradient>
<linearGradient id="paint7_linear_20_7" x1="159.5" y1="-3.11703e-08" x2="160" y2="261" gradientUnits="userSpaceOnUse">
<stop stop-color="#FF932F"/>
<stop offset="1" stop-color="#FF0000"/>
</linearGradient>
<linearGradient id="paint8_linear_20_7" x1="162.5" y1="218.5" x2="269.5" y2="45.5" gradientUnits="userSpaceOnUse">
<stop stop-color="#FF0000"/>
<stop offset="1" stop-color="#FF7A00"/>
</linearGradient>
<linearGradient id="paint9_linear_20_7" x1="162.5" y1="218.5" x2="269.5" y2="45.5" gradientUnits="userSpaceOnUse">
<stop stop-color="#FF0000"/>
<stop offset="1" stop-color="#FF7A00"/>
</linearGradient>
<linearGradient id="paint10_linear_20_7" x1="159.5" y1="-3.11703e-08" x2="160" y2="261" gradientUnits="userSpaceOnUse">
<stop stop-color="#FF932F"/>
<stop offset="1" stop-color="#FF0000"/>
</linearGradient>
<linearGradient id="paint11_linear_20_7" x1="159.5" y1="-3.11703e-08" x2="160" y2="261" gradientUnits="userSpaceOnUse">
<stop stop-color="#FF932F"/>
<stop offset="1" stop-color="#FF0000"/>
</linearGradient>
<linearGradient id="paint12_linear_20_7" x1="159.5" y1="-3.11703e-08" x2="160" y2="261" gradientUnits="userSpaceOnUse">
<stop stop-color="#FF932F"/>
<stop offset="1" stop-color="#FF0000"/>
</linearGradient>
<linearGradient id="paint13_linear_20_7" x1="162.5" y1="218.5" x2="269.5" y2="45.5" gradientUnits="userSpaceOnUse">
<stop stop-color="#FF0000"/>
<stop offset="1" stop-color="#FF7A00"/>
</linearGradient>
<linearGradient id="paint14_linear_20_7" x1="162.5" y1="218.5" x2="269.5" y2="45.5" gradientUnits="userSpaceOnUse">
<stop stop-color="#FF0000"/>
<stop offset="1" stop-color="#FF7A00"/>
</linearGradient>
<linearGradient id="paint15_linear_20_7" x1="162.5" y1="218.5" x2="269.5" y2="45.5" gradientUnits="userSpaceOnUse">
<stop stop-color="#FF0000"/>
<stop offset="1" stop-color="#FF7A00"/>
</linearGradient>
<linearGradient id="paint16_linear_20_7" x1="159.5" y1="-3.11703e-08" x2="160" y2="261" gradientUnits="userSpaceOnUse">
<stop stop-color="#FF932F"/>
<stop offset="1" stop-color="#FF0000"/>
</linearGradient>
<linearGradient id="paint17_linear_20_7" x1="159.5" y1="-3.11703e-08" x2="160" y2="261" gradientUnits="userSpaceOnUse">
<stop stop-color="#FF932F"/>
<stop offset="1" stop-color="#FF0000"/>
</linearGradient>
<linearGradient id="paint18_linear_20_7" x1="162.5" y1="218.5" x2="269.5" y2="45.5" gradientUnits="userSpaceOnUse">
<stop stop-color="#FF0000"/>
<stop offset="1" stop-color="#FF7A00"/>
</linearGradient>
<linearGradient id="paint19_linear_20_7" x1="162.5" y1="218.5" x2="269.5" y2="45.5" gradientUnits="userSpaceOnUse">
<stop stop-color="#FF0000"/>
<stop offset="1" stop-color="#FF7A00"/>
</linearGradient>
<linearGradient id="paint20_linear_20_7" x1="162.5" y1="218.5" x2="269.5" y2="45.5" gradientUnits="userSpaceOnUse">
<stop stop-color="#FF0000"/>
<stop offset="1" stop-color="#FF7A00"/>
</linearGradient>
<linearGradient id="paint21_linear_20_7" x1="162.5" y1="218.5" x2="269.5" y2="45.5" gradientUnits="userSpaceOnUse">
<stop stop-color="#FF0000"/>
<stop offset="1" stop-color="#FF7A00"/>
</linearGradient>
<linearGradient id="paint22_linear_20_7" x1="162.5" y1="218.5" x2="269.5" y2="45.5" gradientUnits="userSpaceOnUse">
<stop stop-color="#FF0000"/>
<stop offset="1" stop-color="#FF7A00"/>
</linearGradient>
<linearGradient id="paint23_linear_20_7" x1="162.5" y1="218.5" x2="269.5" y2="45.5" gradientUnits="userSpaceOnUse">
<stop stop-color="#FF0000"/>
<stop offset="1" stop-color="#FF7A00"/>
</linearGradient>
<linearGradient id="paint24_linear_20_7" x1="162.5" y1="218.5" x2="269.5" y2="45.5" gradientUnits="userSpaceOnUse">
<stop stop-color="#FF0000"/>
<stop offset="1" stop-color="#FF7A00"/>
</linearGradient>
<linearGradient id="paint25_linear_20_7" x1="159.5" y1="-3.11703e-08" x2="160" y2="261" gradientUnits="userSpaceOnUse">
<stop stop-color="#FF932F"/>
<stop offset="1" stop-color="#FF0000"/>
</linearGradient>
<linearGradient id="paint26_linear_20_7" x1="159.5" y1="-3.11703e-08" x2="160" y2="261" gradientUnits="userSpaceOnUse">
<stop stop-color="#FF932F"/>
<stop offset="1" stop-color="#FF0000"/>
</linearGradient>
<linearGradient id="paint27_linear_20_7" x1="159.5" y1="-3.11703e-08" x2="160" y2="261" gradientUnits="userSpaceOnUse">
<stop stop-color="#FF932F"/>
<stop offset="1" stop-color="#FF0000"/>
</linearGradient>
<linearGradient id="paint28_linear_20_7" x1="159.5" y1="-3.11703e-08" x2="160" y2="261" gradientUnits="userSpaceOnUse">
<stop stop-color="#FF932F"/>
<stop offset="1" stop-color="#FF0000"/>
</linearGradient>
<linearGradient id="paint29_linear_20_7" x1="159.5" y1="-3.11703e-08" x2="160" y2="261" gradientUnits="userSpaceOnUse">
<stop stop-color="#FF932F"/>
<stop offset="1" stop-color="#FF0000"/>
</linearGradient>
<linearGradient id="paint30_linear_20_7" x1="159.5" y1="-3.11703e-08" x2="160" y2="261" gradientUnits="userSpaceOnUse">
<stop stop-color="#FF932F"/>
<stop offset="1" stop-color="#FF0000"/>
</linearGradient>
<linearGradient id="paint31_linear_20_7" x1="159.5" y1="-3.11703e-08" x2="160" y2="261" gradientUnits="userSpaceOnUse">
<stop stop-color="#FF932F"/>
<stop offset="1" stop-color="#FF0000"/>
</linearGradient>
<linearGradient id="paint32_linear_20_7" x1="159.5" y1="-3.11703e-08" x2="160" y2="261" gradientUnits="userSpaceOnUse">
<stop stop-color="#FF932F"/>
<stop offset="1" stop-color="#FF0000"/>
</linearGradient>
<linearGradient id="paint33_linear_20_7" x1="159.5" y1="-3.11703e-08" x2="160" y2="261" gradientUnits="userSpaceOnUse">
<stop stop-color="#FF932F"/>
<stop offset="1" stop-color="#FF0000"/>
</linearGradient>
<linearGradient id="paint34_linear_20_7" x1="162.5" y1="218.5" x2="269.5" y2="45.5" gradientUnits="userSpaceOnUse">
<stop stop-color="#FF0000"/>
<stop offset="1" stop-color="#FF7A00"/>
</linearGradient>
<linearGradient id="paint35_linear_20_7" x1="162.5" y1="218.5" x2="269.5" y2="45.5" gradientUnits="userSpaceOnUse">
<stop stop-color="#FF0000"/>
<stop offset="1" stop-color="#FF7A00"/>
</linearGradient>
<linearGradient id="paint36_linear_20_7" x1="159.5" y1="-3.11703e-08" x2="160" y2="261" gradientUnits="userSpaceOnUse">
<stop stop-color="#FF932F"/>
<stop offset="1" stop-color="#FF0000"/>
</linearGradient>
<linearGradient id="paint37_linear_20_7" x1="159.5" y1="-3.11703e-08" x2="160" y2="261" gradientUnits="userSpaceOnUse">
<stop stop-color="#FF932F"/>
<stop offset="1" stop-color="#FF0000"/>
</linearGradient>
</defs>
</svg>
